<?xml version="1.0" standalone="no"?>
<!DOCTYPE svg PUBLIC "-//W3C//DTD SVG 20010904//EN"
 "http://www.w3.org/TR/2001/REC-SVG-20010904/DTD/svg10.dtd">
<svg version="1.0" xmlns="http://www.w3.org/2000/svg"
 width="380.000000pt" height="380.000000pt" viewBox="0 0 380.000000 380.000000"
 preserveAspectRatio="xMidYMid meet">
<metadata>
Created by potrace 1.11, written by Peter Selinger 2001-2013
</metadata>
<g transform="translate(0.000000,380.000000) scale(0.100000,-0.100000)"
fill="#000000" stroke="none">
<path d="M0 1900 l0 -1900 1900 0 1900 0 0 1900 0 1900 -1900 0 -1900 0 0
-1900z m2143 808 c4 -73 12 -252 18 -398 6 -146 14 -275 18 -286 6 -20 39 54
348 764 l23 52 310 0 c170 0 310 -3 310 -6 0 -10 -583 -1339 -591 -1348 -19
-22 -529 91 -774 171 l-120 39 -5 44 -5 43 -17 -36 -17 -36 -102 40 c-117 46
-381 165 -402 182 -12 10 7 62 122 324 75 171 162 373 195 447 l58 136 313 0
312 0 6 -132z m-995 -841 c69 -43 226 -124 345 -177 65 -29 116 -57 115 -61
-2 -4 -70 -163 -153 -353 l-150 -345 -312 -1 -312 0 61 138 c33 75 118 270
188 432 164 376 170 390 176 390 2 0 21 -10 42 -23z m867 -373 c142 -45 385
-108 463 -120 23 -4 42 -11 42 -16 0 -8 -127 -306 -171 -400 l-12 -28 -322 0
-322 0 -6 182 c-4 99 -7 252 -7 339 l0 159 98 -36 c53 -20 160 -56 237 -80z"/>
</g>
</svg>
