<?xml version="1.0" encoding="UTF-8" standalone="no"?>
<svg width="198px" height="152px" viewBox="0 0 198 152" version="1.1" xmlns="http://www.w3.org/2000/svg" xmlns:xlink="http://www.w3.org/1999/xlink" xmlns:sketch="http://www.bohemiancoding.com/sketch/ns">
    <!-- Generator: Sketch 3.5.1 (25234) - http://www.bohemiancoding.com/sketch -->
    <title>nitro-logo-white</title>
    <desc>Created with Sketch.</desc>
    <defs></defs>
    <g id="Page-1" stroke="none" stroke-width="1" fill="none" fill-rule="evenodd" sketch:type="MSPage">
        <g id="nitro-logo-white" sketch:type="MSLayerGroup" fill="#FFFFFF">
            <g id="Group" sketch:type="MSShapeGroup">
                <path d="M148.4,0.1 L118.7,68.2 L115.5,0.1 L66.3,0.1 L35.3,71.3 C48.5,78.2 62.3,84.3 76.5,89.4 L76.5,89.4 L76.6,89.4 L79.5,82.7 L79.6,90.5 C102.2,98.4 125.9,104.1 150.5,108.1 L150.5,108.1 L150.6,108.1 L197.7,0.2 L148.4,0.2 L148.4,0.1 Z" id="Shape"></path>
                <path d="M73.6,95.1 C58.9,89 45.3,82.2 33.7,75 L0.3,151.5 L49.5,151.5 L74,95.3 C73.8,95.2 73.7,95.1 73.6,95.1 L73.6,95.1 Z" id="Shape"></path>
                <path d="M146.5,117 C123.8,112.6 100.7,105.8 79.6,97.5 L80,151.4 L131.5,151.4 L146.5,117 L146.5,117 L146.5,117 Z" id="Shape"></path>
            </g>
        </g>
    </g>
</svg>