<svg width="675" height="159" viewBox="0 0 675 159" xmlns="http://www.w3.org/2000/svg"><title>nitro-logo-white</title><g fill="#FFF" fill-rule="evenodd"><path d="M461.4 109.7c-8.4 1.7-16.8 3.2-25.2 4.7l-16.2 37h54.6l17.4-39.9c1.4-3.3 2.7-6.2 3.8-8.8-10.4 2.2-21.6 4.4-34.4 7zM312.1 129.3c-19.7.9-39.4 1.2-59 .6l-9.3 21.4h58.8l9.5-22c0 .1 0 .1 0 0zM406.2 7.4L401.4 0H275l-13.2 30.3h34.8l-37.7 86.5c20.1-.2 40.1-1.2 60-2.9l36.5-83.7h31.8l24-15.4-5-7.4zM148.4.1l-29.7 68.1L115.5.1H66.3l-31 71.2c13.2 6.9 27 13 41.2 18.1h.1l2.9-6.7.1 7.8c22.6 7.9 46.3 13.6 70.9 17.6h.1L197.7.2h-49.3V.1zM73.6 95.1C58.9 89 45.3 82.2 33.7 75L.3 151.5h49.2L74 95.3c-.2-.1-.3-.2-.4-.2zM146.5 117c-22.7-4.4-45.8-11.2-66.9-19.5l.4 53.9h51.5l15-34.4zM157.6 120.3c0-.1 0-.1 0 0L144 151.4h58.8l10.5-24c-18.6-1.6-37.2-3.9-55.7-7.1zM210.1.1L161.7 111c18.4 2.5 37.3 4.1 56.6 4.9L268.8.1h-58.7zM354.6 125.8l-11.2 25.6h58.8l14.7-33.7c-20.8 3.3-41.6 6.1-62.3 8.1z"/><path d="M525.7 13.2c-3.6-5.9-10-9.6-19.2-11C497.3.8 478.8.1 451.1.1h-41.7l2.4 4.1 7.2 11.9-23.6 16.3-33.3 76.5c21.3-2.8 42.4-6.4 63.4-10.6l6.6-15.1c8.1 0 12.7 1 13.8 2.9.7 1.3.4 4-1 8.2 17.7-3.8 35.4-8 53-12.6v.1c.1 0 .1-.1.2-.1-.3-.5-.7-1-1.1-1.5-2.6-3.2-9.3-5.8-20.1-7.8 13.2-.8 22.9-3.2 29-7.3 6.1-4 11.8-12 16.9-23.7 5.5-12.9 6.5-22.3 2.9-28.2zm-56 24.4l-3.6 8.3c-2.9 6.7-6 10.6-9.1 11.8-3.2 1.2-8.1 1.8-14.7 1.8L457 25.8c6.8 0 11.2.7 13.1 2.2 1.8 1.7 1.7 4.8-.4 9.6zM671.2 16.4c-3.6-5.3-9.6-9.3-18-11.9-8.5-2.7-18.8-4-30.9-4-12.8 0-24.5 1.4-35.4 4.2-10.8 2.8-20.2 6.8-28.1 12.1-7.9 5.2-13.8 11-17.6 17.3-3.8 6.3-9.1 17.1-15.7 32.3l-3.6 8.2c3.1-.8 6.3-1.7 9.4-2.5 21.8-6 38.3-10.8 57-16.8.3-.2.7-.4 1-.3l5.4-12.4c3.4-7.8 6.3-12.5 8.6-14.1 2.3-1.6 5-2.4 8.1-2.4 3.6 0 5.6 1 5.9 2.9.3 2-1.1 6.5-4.2 13.5l-30.3 69.6c-3.9 8.9-6.9 14.5-9.1 16.9-2.1 2.4-5.2 3.6-9.2 3.6-3.9 0-6-1-6.1-3.1-.2-2.1 1.7-7.5 5.5-16.3L578 80.8c-.1.1-.3.2-.5.2v.1c-23.6 7-43.1 11.9-65.7 16.9-5.3 12.5-8.7 21.5-10.1 27-1.6 6.2-.6 12 2.9 17.3 3.6 5.3 9.6 9.3 18.1 11.9 8.5 2.6 18.8 4 30.9 4 12.8 0 24.5-1.4 35.4-4.2 10.8-2.8 20.2-6.8 28.1-12.1 7.9-5.2 13.8-11 17.6-17.3 3.8-6.3 9.1-17.1 15.7-32.3l11.3-25.9c6.8-15.6 11-26.5 12.6-32.7 1.4-6.2.4-12-3.1-17.3z"/></g></svg>