<?xml version="1.0" encoding="UTF-8"?>
<svg width="414px" height="110px" viewBox="0 0 414 110" version="1.1" xmlns="http://www.w3.org/2000/svg" xmlns:xlink="http://www.w3.org/1999/xlink">
    <!-- Generator: Sketch 54.1 (76490) - https://sketchapp.com -->
    <title>Group</title>
    <desc>Created with Sketch.</desc>
    <defs>
        <polygon id="path-1" points="89.0203888 109.209677 0.000179017857 109.209677 0.000179017857 0.254583871 89.0203888 0.254583871 89.0203888 109.209677"></polygon>
    </defs>
    <g id="Desktop" stroke="none" stroke-width="1" fill="none" fill-rule="evenodd">
        <g id="9-–-Login-Copy" transform="translate(-141.000000, -398.000000)">
            <g id="Group" transform="translate(141.000000, 398.000000)">
                <path d="M113.235,101 L111.345,101 L111.345,77.655 L115.51,77.655 C119.08,77.655 120.655,80.805 120.655,84.445 C120.655,88.085 119.08,91.235 115.51,91.235 L113.235,91.235 L113.235,101 Z M115.37,89.52 C117.645,89.52 118.66,87.42 118.66,84.445 C118.66,81.47 117.645,79.37 115.37,79.37 L113.235,79.37 L113.235,89.52 L115.37,89.52 Z M148.2,101 L140.185,101 L140.185,77.655 L142.075,77.655 L142.075,99.285 L148.2,99.285 L148.2,101 Z M176.655001,101 L174.695001,101 L173.680001,95.19 L168.430001,95.19 L167.415001,101 L165.455001,101 L169.970001,77.655 L172.140001,77.655 L176.655001,101 Z M173.435001,93.475 L171.055001,80.07 L168.675001,93.475 L173.435001,93.475 Z M199.580001,101 L197.725001,101 L197.725001,90.99 L192.615001,77.655 L194.645001,77.655 L198.670001,88.96 L202.730001,77.655 L204.690001,77.655 L199.580001,90.99 L199.580001,101 Z M227.650002,101.42 C223.730002,101.42 222.050002,96.485 222.050002,89.345 C222.050002,82.17 223.730002,77.27 227.650002,77.27 C230.135002,77.27 231.360002,79.16 232.025002,81.33 L230.415002,81.925 C229.855002,80.175 229.155002,78.985 227.650002,78.985 C225.025002,78.985 224.045002,83.43 224.045002,89.345 C224.045002,95.225 225.025002,99.705 227.650002,99.705 C228.875002,99.705 229.785002,99.11 230.310002,98.095 L230.310002,91.165 L226.985002,91.165 L226.985002,89.45 L232.060002,89.45 L232.060002,98.76 C231.010002,100.545 229.435002,101.42 227.650002,101.42 Z M262.090002,101 L260.025002,101 L256.770002,91.235 L254.460002,91.235 L254.460002,101 L252.570002,101 L252.570002,77.655 L256.770002,77.655 C259.780002,77.655 261.880002,80.14 261.880002,84.41 C261.880002,88.61 260.060002,90.36 258.555002,90.85 L262.090002,101 Z M256.595002,89.52 C258.870002,89.52 259.885002,87.42 259.885002,84.445 C259.885002,81.47 258.870002,79.37 256.595002,79.37 L254.460002,79.37 L254.460002,89.52 L256.595002,89.52 Z M287.150002,101.42 C283.020002,101.42 281.585002,95.925 281.585002,89.345 C281.585002,82.765 283.020002,77.27 287.150002,77.27 C291.315002,77.27 292.750002,82.765 292.750002,89.345 C292.750002,95.925 291.315002,101.42 287.150002,101.42 Z M287.150002,99.705 C289.845002,99.705 290.755002,94.84 290.755002,89.345 C290.755002,83.78 289.845002,78.985 287.150002,78.985 C284.490002,78.985 283.580002,83.78 283.580002,89.345 C283.580002,94.84 284.490002,99.705 287.150002,99.705 Z M317.810003,101.42 C314.905003,101.42 312.875003,99.565 312.875003,95.295 L312.875003,77.655 L314.765003,77.655 L314.765003,95.33 C314.765003,98.585 315.990003,99.705 317.810003,99.705 C319.630003,99.705 320.855003,98.585 320.855003,95.33 L320.855003,77.655 L322.745003,77.655 L322.745003,95.295 C322.745003,99.565 320.750003,101.42 317.810003,101.42 Z M353.370003,101 L351.550003,101 L345.425003,82.45 L345.425003,101 L343.535003,101 L343.535003,77.655 L345.425003,77.655 L351.480003,95.96 L351.480003,77.655 L353.370003,77.655 L353.370003,101 Z M378.080003,101 L374.195003,101 L374.195003,77.655 L378.045003,77.655 C382.595003,77.655 384.415003,82.59 384.415003,89.345 C384.415003,96.17 382.595003,101 378.080003,101 Z M378.045003,99.285 C381.265003,99.285 382.420003,95.05 382.420003,89.345 C382.420003,83.675 381.265003,79.37 378.045003,79.37 L376.085003,79.37 L376.085003,99.285 L378.045003,99.285 Z M407.585004,101.42 C405.765004,101.42 404.155004,100.685 403.035004,99.355 L404.120004,97.85 C404.890004,99.005 406.255004,99.705 407.515004,99.705 C409.335004,99.705 410.840004,98.13 410.840004,95.645 C410.840004,89.835 403.665004,89.275 403.665004,82.695 C403.665004,79.44 405.835004,77.27 408.530004,77.27 C410.000004,77.27 411.295004,77.76 412.310004,78.81 L411.400004,80.28 C410.630004,79.405 409.685004,78.985 408.565004,78.985 C406.990004,78.985 405.555004,80.385 405.555004,82.66 C405.555004,87.63 412.730004,88.68 412.730004,95.575 C412.730004,98.9 410.700004,101.42 407.585004,101.42 Z" id="PLAYGROUNDS" fill="#637381" fill-rule="nonzero"></path>
                <g id="Page-1">
                    <path d="M112.416689,60.217514 L112.416689,12.5441344 L136.287196,12.5441344 C147.007483,12.5441344 152.867907,19.763042 152.867907,28.4114362 C152.867907,36.988356 147.007483,44.2072636 136.287196,44.2072636 L124.709285,44.2072636 L124.709285,60.217514 L112.416689,60.217514 Z M140.360905,28.4114362 C140.360905,25.1236169 137.930973,23.2652842 134.643418,23.2652842 L124.709285,23.2652842 L124.709285,33.4861138 L134.643418,33.4861138 C137.930973,33.4861138 140.360905,31.6277811 140.360905,28.4114362 Z M158.067212,60.217514 L158.067212,12.5441344 L169.073373,12.5441344 L169.073373,60.217514 L158.067212,60.217514 Z M197.428499,60.217514 L197.428499,56.7867461 C195.284442,59.359822 191.139264,61.075206 186.708212,61.075206 C181.419537,61.075206 174.844427,57.5014894 174.844427,49.7107872 C174.844427,41.3482903 181.419537,38.8466887 186.708212,38.8466887 C191.282201,38.8466887 195.35591,40.2761753 197.428499,42.8492513 L197.428499,38.489317 C197.428499,35.4873951 194.85563,33.4861138 190.424578,33.4861138 C186.994086,33.4861138 183.420657,34.7726517 180.633382,37.1313047 L176.70261,30.1982945 C181.133662,26.4101549 187.065555,24.8377196 192.35423,24.8377196 C200.644585,24.8377196 208.434661,27.9111158 208.434661,38.6322657 L208.434661,60.217514 L197.428499,60.217514 Z M197.428499,51.3546968 L197.428499,48.2813005 C196.285002,46.7088652 193.712133,45.8511732 191.282201,45.8511732 C188.351989,45.8511732 185.77912,47.1377112 185.77912,49.8537358 C185.77912,52.5697605 188.351989,53.8562985 191.282201,53.8562985 C193.712133,53.8562985 196.285002,52.9986065 197.428499,51.3546968 Z M217.278863,63.862705 C218.065018,64.291551 219.137047,64.505974 219.99467,64.505974 C222.49607,64.505974 224.068379,64.0056536 224.640127,62.576167 L225.426282,60.7178343 L211.704314,25.6954115 L223.282224,25.6954115 L231.0723,47.5665572 L238.933844,25.6954115 L250.583223,25.6954115 L235.003072,65.1492429 C232.215797,72.4396248 226.998591,74.0835345 220.423481,74.2264831 C219.422921,74.2264831 216.850052,74.0120601 215.706555,73.6546885 L217.278863,63.862705 Z M253.852876,60.217514 L253.852876,12.5441344 L264.859038,12.5441344 L264.859038,29.7694485 C267.574844,26.3386805 271.29121,24.8377196 275.079045,24.8377196 C283.655275,24.8377196 290.301853,31.6277811 290.301853,42.9207256 C290.301853,54.6425161 283.583807,61.075206 275.079045,61.075206 C271.219742,61.075206 267.717781,59.5027707 264.859038,56.2149514 L264.859038,60.217514 L253.852876,60.217514 Z M264.859038,48.2813005 C266.216941,50.1396332 269.075684,51.3546968 271.434148,51.3546968 C275.793731,51.3546968 279.081286,48.1383519 279.081286,42.9207256 C279.081286,37.7745737 275.793731,34.5582287 271.434148,34.5582287 C269.075684,34.5582287 266.216941,35.8447667 264.859038,37.7030994 L264.859038,48.2813005 Z M312.58215,61.075206 C300.861302,61.075206 293.785912,52.6412348 293.785912,42.9207256 C293.785912,33.2002164 300.861302,24.8377196 312.58215,24.8377196 C324.445934,24.8377196 331.449856,33.2002164 331.449856,42.9207256 C331.449856,52.6412348 324.445934,61.075206 312.58215,61.075206 Z M312.58215,51.3546968 C317.442013,51.3546968 320.157819,47.5665572 320.157819,42.9207256 C320.157819,38.3463684 317.442013,34.5582287 312.58215,34.5582287 C307.793755,34.5582287 305.149417,38.3463684 305.149417,42.9207256 C305.149417,47.5665572 307.793755,51.3546968 312.58215,51.3546968 Z M353.730152,61.075206 C342.009304,61.075206 334.933914,52.6412348 334.933914,42.9207256 C334.933914,33.2002164 342.009304,24.8377196 353.730152,24.8377196 C365.593936,24.8377196 372.597858,33.2002164 372.597858,42.9207256 C372.597858,52.6412348 365.593936,61.075206 353.730152,61.075206 Z M353.730152,51.3546968 C358.590015,51.3546968 361.305821,47.5665572 361.305821,42.9207256 C361.305821,38.3463684 358.590015,34.5582287 353.730152,34.5582287 C348.941757,34.5582287 346.297419,38.3463684 346.297419,42.9207256 C346.297419,47.5665572 348.941757,51.3546968 353.730152,51.3546968 Z M400.238297,60.217514 L392.662628,47.9954032 L389.375073,51.9264915 L389.375073,60.217514 L378.368911,60.217514 L378.368911,12.5441344 L389.375073,12.5441344 L389.375073,39.4899577 L399.880955,25.6954115 L413.174111,25.6954115 L400.452703,41.4197646 L413.817328,60.217514 L400.238297,60.217514 Z" id="Playbook" fill="#004976"></path>
                    <g id="Group-10" transform="translate(0.000000, 0.640935)">
                        <g id="Group-3">
                            <mask id="mask-2" fill="white">
                                <use xlink:href="#path-1"></use>
                            </mask>
                            <g id="Clip-2"></g>
                            <path d="M45.5405317,0.254583871 C42.0111946,0.254583871 39.1406433,3.14147903 39.1406433,6.68900323 L39.1406433,15.7068581 L2.84477277,42.3065758 L2.80986429,42.3325355 L2.77585089,42.3576 L2.75615893,42.3728177 C1.02863661,43.6600597 0.000179017857,45.71535 0.000179017857,47.8825355 L0.000179017857,75.3648823 C0.000179017857,77.5517613 1.03579732,79.6133177 2.77406071,80.9005597 L2.80628393,80.9238339 L2.8250808,80.9381565 L2.84477277,80.952479 L39.7152906,107.972923 C40.8171455,108.781253 42.1195004,109.210035 43.4800362,109.210035 C47.0102683,109.210035 49.8817147,106.322245 49.8817147,102.773826 L49.8817147,93.7577613 L86.1757951,67.1571484 L86.2115987,67.1320839 L86.2456121,67.1061242 L86.2626187,67.0926968 C87.9910362,65.8054548 89.0203888,63.7492694 89.0203888,61.5811887 L89.0203888,34.0997371 C89.0203888,31.9083823 87.9829804,29.8459306 86.2420317,28.560479 L86.2115987,28.5381 L86.194592,28.5246726 L86.1757951,28.5112452 L49.3052772,1.49080161 C48.2043174,0.683366129 46.9019625,0.254583871 45.5405317,0.254583871 M45.5405317,5.62555161 C45.7410317,5.62555161 45.9451121,5.68642258 46.1303955,5.82338226 L83.0018085,32.8438258 L83.0456679,32.8760516 C83.4251857,33.1535516 83.6498531,33.6056081 83.6498531,34.0854145 L83.6498531,34.0997371 L83.6498531,61.5713419 L83.6498531,61.5811887 C83.6498531,62.0645758 83.4233955,62.5157371 83.0429826,62.7941323 L83.0018085,62.8245677 L44.511179,91.0346806 L44.511179,102.773826 C44.511179,103.402229 44.0135094,103.839068 43.4800362,103.839068 C43.2804312,103.839068 43.0754558,103.776406 42.8892772,103.640342 L6.01965446,76.6207935 L5.97579509,76.5876726 C5.59538214,76.3092774 5.37071473,75.8590113 5.37071473,75.3792048 L5.37071473,75.3648823 L5.37071473,47.8932774 L5.37071473,47.8825355 C5.37071473,47.4000435 5.59717232,46.9479871 5.97758527,46.6704871 L6.01965446,46.6382613 L44.511179,18.4290435 L44.511179,6.68900323 C44.511179,6.06239032 45.0070585,5.62555161 45.5405317,5.62555161" id="Fill-1" fill="#00A9DE" mask="url(#mask-2)"></path>
                        </g>
                        <polygon id="Fill-4" fill="#00A9DE" points="32.5993308 48.4788024 30.1503665 46.0296411 23.6573888 52.5231411 17.1644112 46.0296411 14.7154469 48.4788024 21.2075295 54.9723024 14.7154469 61.4666976 17.1644112 63.9158589 23.6573888 57.4214637 30.1503665 63.9158589 32.5993308 61.4666976 26.1063531 54.9723024"></polygon>
                        <path d="M64.9030136,44.4671371 C59.10194,44.4671371 54.3982458,49.1703145 54.3982458,54.9718548 C54.3982458,60.7751855 59.10194,65.4783629 64.9030136,65.4783629 C70.7040873,65.4783629 75.4068864,60.7751855 75.4068864,54.9718548 C75.4068864,49.1703145 70.7040873,44.4671371 64.9030136,44.4671371 M64.9030136,47.9314113 C68.7850158,47.9314113 71.9428908,51.0895403 71.9428908,54.9718548 C71.9428908,58.8550645 68.7850158,62.0140887 64.9030136,62.0140887 C61.0201163,62.0140887 57.8622413,58.8550645 57.8622413,54.9718548 C57.8622413,51.0895403 61.0201163,47.9314113 64.9030136,47.9314113" id="Fill-6" fill="#00A9DE"></path>
                        <path d="M53.5317098,50.6240565 L43.4870179,39.7505323 L33.4655982,50.6240565 L35.9190379,52.9094032 L41.8087254,46.475879 L41.8087254,65.1704274 C41.8087254,66.0960242 42.5588103,66.8461694 43.4834375,66.8461694 C44.4098549,66.8461694 45.1590446,66.0960242 45.1590446,65.1704274 L45.1590446,46.4696129 L51.0782701,52.9094032 L53.5317098,50.6240565 Z" id="Fill-8" fill="#00A9DE"></path>
                    </g>
                </g>
            </g>
        </g>
    </g>
</svg>